<?xml version="1.0" encoding="utf-8"?>
<!-- Generator: Adobe Illustrator 26.0.1, SVG Export Plug-In . SVG Version: 6.00 Build 0)  -->
<svg version="1.1" id="Camada_1" xmlns="http://www.w3.org/2000/svg" xmlns:xlink="http://www.w3.org/1999/xlink" x="0px" y="0px"
	 viewBox="0 0 277.5 71.1" style="enable-background:new 0 0 277.5 71.1;" xml:space="preserve">
<style type="text/css">
	.st0{fill:#FFFFFF;}
</style>
<g>
	<g>
		<path class="st0" d="M111.1,34.1c-1-3-1.3-5.5-1.2-8.1c0.1-1.9-1-3.7-2.7-4.6l-4.5-2.2c-0.3-0.1-0.6-0.2-0.9-0.2c0,0,0,0,0,0
			c-2.5-0.6-4.8,1.2-4,5.5c0.4,2.3,1.6,2.7,2.8,2.6c0.2,0,0.4,0,0.6-0.1c0.3-0.1,0.5-0.1,0.8-0.2c0.5-0.1,0.9-0.2,1.2-0.2
			c1.3,0.1,1.9,1.6,1.9,1.6c-0.5,2.5-1.1,7.1-1.1,7.1c-5.1,8.3-2.5,14-2.5,14s-1.1-1.3-1.1-1.3c-2.8-6.9-10.7-4.7-10.7-4.7l-5.9,1.5
			l4.6-1.4c-3.2-3.5-7.7-3.3-10.2-2.8c-0.1-0.7-0.3-1.4-0.5-2.1l-3.2,1.8l4.1-3.5h0c2.7-2.5,6-5.8,6.6-7.7c0.9-2.6-1-5.4-3-7.6
			c-2.6-2.7-5.9-4.7-9.5-5.7c-2.8-0.8-6.1-1-7.8,1c-1.3,1.5-2.5,6-3.2,9.8l-0.9,5.4l0-3.8c-3.6,0.8-6.9,3-8.8,6.5
			c-3.8,6.7-3.9,14,5.5,19.7c4.5,2.7,8.2,3.3,11.3,2.4c4.1,0.2,8.1,0.6,12,1.1c1-0.5,1.9-0.8,2.6-1c-1-0.9-2.6-1.1-2.6-1.1
			c1.9-0.3,3.9,0.8,3.9,0.8c1.8,1.4,3.7,2.3,5.7,2.9c0.9,0.2,1.8,0.4,2.7,0.6c7.9,1.2,16-1.9,17.2-1.9c1.6,0,2-1.6,2-1.6
			C110.5,48.4,112.3,37.8,111.1,34.1z M65.9,26.1c0.3-2.3,0.7-4.7,1.4-6c-0.6,0.4-1,1-1,1c0.5-1,1.1-1.5,1.6-1.8
			c0.1-0.1,0.2-0.1,0.3-0.2c2.7-1,7.7,2,7.7,2s4.4,2.7,5.3,5.4l0,0c0,0,0.7,1.5-0.5,3.3c0,0,0.4-0.7,0.3-1.5
			c-0.7,1.3-2.5,2.9-4.4,4.3c-0.1,0.1-0.2,0.2-0.3,0.2h0c-0.1,0-0.1,0.1-0.2,0.1c-0.6,0.3-2.4,1.1-3.6,1c0,0,0.9-0.2,1.9-0.8
			c-0.3-0.1-0.5-0.2-0.8-0.3c-1.1-0.7-2.1-1.3-3.3-2c-1.1-0.6-2.3-1.3-3.3-1.9c-0.3-0.1-0.5-0.3-0.7-0.6c0,1.2,0.3,2.1,0.3,2.1
			c-0.6-0.9-0.8-2.5-0.9-3.4C65.9,26.8,65.8,26.5,65.9,26.1z"/>
		<path class="st0" d="M49.8,34.4c1.9-3.5,5-5.8,8.5-7c-2-1.8-4.4-3-6.9-3.5l0,4.4L50.3,22c-0.9-4.3-2.2-9.4-3.7-11.2
			c-2-2.4-5.8-2.1-9-1.2c-4.1,1.1-7.8,3.4-10.8,6.5c-2.3,2.5-4.4,5.7-3.4,8.7c0.7,2.2,4.4,6,7.6,8.9h0l4.7,4L32,35.7
			c-0.5,1.5-0.7,3-0.7,4.6c-2.4,0-5.3,0.6-7.5,3.1l4.6,1.4l-5.9-1.5c0,0-8-2.2-10.7,4.7c0,0-1.1,1.3-1.1,1.3s2.6-5.7-2.5-14
			c0,0-0.6-4.6-1.1-7.1c0,0,0.6-1.5,1.9-1.6c0.3,0,0.7,0.1,1.2,0.2c0.3,0.1,0.5,0.1,0.8,0.2c0.2,0,0.4,0.1,0.6,0.1
			c1.2,0.1,2.3-0.3,2.8-2.6c0.8-4.3-1.5-6-4-5.5c0,0,0,0,0,0c-0.3,0-0.6,0.1-0.9,0.2l-4.5,2.2c-1.7,0.8-2.7,2.6-2.7,4.6
			c0.1,2.6-0.3,5-1.2,8.1c-1.2,3.7,0.6,14.3-1,22.3c0,0,0.4,1.6,2,1.6c1.2,0,9.2,3.1,17.2,1.9c0.9-0.2,1.8-0.4,2.7-0.6
			c2-0.6,4-1.5,5.7-2.9c0,0,2-1.1,3.9-0.8c0,0-1.6,0.1-2.6,1.1c0.7,0.2,1.6,0.5,2.6,1c3.6-0.5,7.4-0.8,11.2-1.1
			c3,0.8,6.6,0.3,10.7-1.8C45.4,48.7,45.9,41.3,49.8,34.4z M33.6,29.5c-0.1,0-0.1-0.1-0.2-0.1h0c-0.1-0.1-0.3-0.2-0.4-0.3
			c-2.1-1.7-4.2-3.5-5-5c0,0.9,0.4,1.7,0.4,1.7c-1.4-2.1-0.5-3.8-0.5-3.8h0c1.1-3.1,6.1-6.1,6.1-6.1s5.7-3.5,8.8-2.3
			c0.1,0,0.2,0.1,0.3,0.2c0.6,0.3,1.3,0.9,1.9,2c0,0-0.4-0.7-1.1-1.1c0.8,1.5,1.3,4.2,1.6,6.9c0,0.4,0,0.7,0,1.1
			c-0.1,1-0.3,2.9-1,3.9c0,0,0.3-1,0.3-2.4c-0.2,0.2-0.5,0.5-0.8,0.6c-1.2,0.7-2.5,1.4-3.8,2.1c-1.4,0.8-2.5,1.6-3.7,2.3
			c-0.3,0.2-0.6,0.3-0.9,0.4c1.2,0.7,2.2,1,2.2,1C36.4,30.8,34.3,29.9,33.6,29.5z"/>
	</g>
	<g>
		<g>
			<path class="st0" d="M180.5,30.4h-22.8V16l5.1-2.6h17.7v3.9h-15.2v9.2h7.6v-2.6h-5.1v-3.9h12.7V30.4z"/>
			<path class="st0" d="M210.4,13.3l-10.1,10.5v6.6h-7.6v-6.6l-10.1-10.5h7.6l6.3,6.6l6.3-6.6H210.4z"/>
			<path class="st0" d="M240.9,30.4h-6.3v-7.9l-5.1,6.6h-6.3l-3.8-6.6v7.9h-6.3V13.3h6.3l7.6,9.2l7.6-9.2h6.3V30.4z"/>
		</g>
		<g>
			<path class="st0" d="M142.7,45.4l-7.6,3.9h-6.3v6.6h-7.6V38.8h21.5v3.9h-13.9v2.6H142.7z"/>
			<path class="st0" d="M151.5,55.9h-6.3V38.8h6.3V55.9z"/>
			<path class="st0" d="M178.3,42.7h-8.9v13.1h-7.6V42.7h-7.6v-3.9h24.1V42.7z"/>
			<path class="st0" d="M202.7,55.9h-6.3l-8.9-9.2v9.2h-6.3V38.8h5.1l10.1,9.2v-9.2h6.3V55.9z"/>
			<path class="st0" d="M228,55.9h-22.8V38.8H228v3.9h-15.2v2.6H228l-6.3,3.9h-8.9v2.6H228V55.9z"/>
			<path class="st0" d="M252.5,55.9h-22.8v-3.9h15.2v-2.6h-10.1l-5.1-2.6v-5.2l5.1-2.6h17.7v3.9h-15.2v2.6h10.1l5.1,2.6V55.9z"/>
			<path class="st0" d="M277.5,55.9h-22.8v-3.9h15.2v-2.6h-10.1l-5.1-2.6v-5.2l5.1-2.6h17.7v3.9h-15.2v2.6h10.1l5.1,2.6V55.9z"/>
		</g>
	</g>
</g>
</svg>
